<svg viewBox="0 0 128 128" xmlns="http://www.w3.org/2000/svg"><title></title><g id="8fdf56a9-463d-4e84-b911-2d7fce9202f3"><polygon fill="#e09826" points="116 59.92 92 34 76.5 50.74 61 34 45.5 50.74 30 34 12 53.44 12 61 116 61 116 59.92"></polygon><path d="M116,34V85s-21,7-53.25,7H62a204.33,204.33,0,0,1-50-7V34L28.5,51.82,45,34,62,52.36,79,34,97.5,54Z" fill="#fbc46e"></path><path d="M62,52.36V92a204.33,204.33,0,0,1-50-7V34L28.5,51.82,45,34Z" fill="#fbb850"></path><ellipse cx="45.5" cy="50.5" fill="#fe6759" rx="3.5" ry="5.5"></ellipse><ellipse cx="79.5" cy="50.5" fill="#fe6759" rx="3.5" ry="5.5"></ellipse><ellipse cx="115.5" cy="50.5" fill="#fe6759" rx="3.5" ry="5.5"></ellipse><ellipse cx="12.5" cy="50.5" fill="#fe6759" rx="3.5" ry="5.5"></ellipse><polygon fill="#fe6759" points="116 66.45 116 71.93 110.46 66.74 101.91 74.74 93.37 66.74 84.83 74.74 76.29 66.74 67.76 74.74 61 68.41 59.22 66.74 50.69 74.74 42.15 66.74 33.61 74.74 25.07 66.74 16.54 74.74 12 70.49 12 65 16.54 69.26 25.07 61.26 33.61 69.26 42.15 61.26 50.69 69.26 59.22 61.26 61 62.93 67.76 69.26 76.29 61.26 84.83 69.26 93.37 61.26 101.91 69.26 110.46 61.26 116 66.45"></polygon><polygon fill="#de5050" points="61 62.93 61 68.41 59.22 66.74 50.69 74.74 42.15 66.74 33.61 74.74 25.07 66.74 16.54 74.74 12 70.49 12 65 16.54 69.26 25.07 61.26 33.61 69.26 42.15 61.26 50.69 69.26 59.22 61.26 61 62.93"></polygon><line fill="none" stroke="#fbd597" stroke-linecap="round" stroke-linejoin="round" stroke-width="2" x1="46" x2="60" y1="39" y2="54"></line><line fill="none" stroke="#fbd597" stroke-linecap="round" stroke-linejoin="round" stroke-width="2" x1="79" x2="94" y1="38" y2="55"></line><line fill="none" stroke="#fbd597" stroke-linecap="round" stroke-linejoin="round" stroke-width="2" x1="14" x2="24" y1="41" y2="52"></line></g></svg>